<svg width="18" height="20" viewBox="0 0 24 27" fill="none" xmlns="http://www.w3.org/2000/svg">
<path d="M10.5 23.7234C11.3284 23.7234 12 22.9947 12 22.0957C12 21.1968 11.3284 20.4681 10.5 20.4681C9.67157 20.4681 9 21.1968 9 22.0957C9 22.9947 9.67157 23.7234 10.5 23.7234Z" fill="white"/>
<path d="M17.5 23.7234C18.3284 23.7234 19 22.9947 19 22.0957C19 21.1968 18.3284 20.4681 17.5 20.4681C16.6716 20.4681 16 21.1968 16 22.0957C16 22.9947 16.6716 23.7234 17.5 23.7234Z" fill="white"/>
<path d="M21 8.5319H7.334L6.18 5.52615C6.02851 5.13024 5.77211 4.79205 5.4433 4.55444C5.11448 4.31683 4.72806 4.19051 4.333 4.19147H2V6.36169H4.334L9.077 18.7156C9.232 19.1193 9.597 19.383 10 19.383H18C18.417 19.383 18.79 19.1019 18.937 18.6798L21.937 9.99896C21.9932 9.83467 22.012 9.65808 21.9918 9.48421C21.9716 9.31034 21.913 9.14433 21.8211 9.0003C21.7291 8.85627 21.6064 8.73847 21.4634 8.65692C21.3205 8.57537 21.1615 8.53248 21 8.5319ZM17 15.0425H15V17.2127H13V15.0425H11V12.8723H13V10.7021H15V12.8723H17V15.0425Z" fill="white"/>
</svg>
