<svg width="30" height="30" viewBox="0 0 36 36" fill="none" xmlns="http://www.w3.org/2000/svg">
<path d="M24.89 26H32.75C32.09 17.29 28.34 11.88 23.53 8.68L25.72 3.9C25.7862 3.74832 25.8137 3.58259 25.8001 3.41765C25.7865 3.25272 25.7321 3.09375 25.6419 2.95499C25.5517 2.81623 25.4285 2.70203 25.2833 2.62262C25.1381 2.54321 24.9755 2.50108 24.81 2.5H11.1C10.9345 2.50108 10.7719 2.54321 10.6267 2.62262C10.4815 2.70203 10.3582 2.81623 10.2681 2.95499C10.1779 3.09375 10.1235 3.25272 10.1099 3.41765C10.0963 3.58259 10.1238 3.74832 10.19 3.9L11.39 6.5H21.51L20.61 8.5H18.76C19.325 10.0192 19.7403 11.59 20 13.19C20.1682 14.1825 20.2751 15.1844 20.32 16.19L18.74 17.3C18.7443 16.0065 18.6372 14.7151 18.42 13.44C18.1437 11.743 17.667 10.0847 17 8.5H16C15.0771 9.66606 14.2479 10.9033 13.52 12.2C12.9331 13.3124 12.4349 14.4693 12.03 15.66L10.66 14.75C11.0599 13.5991 11.5515 12.4822 12.13 11.41C12.7146 10.4045 13.3556 9.43298 14.05 8.5H12.3L12.38 8.67C7.07999 12.2 3.04999 18.4 3.04999 28.75C3.03647 28.9676 3.06621 29.1856 3.13746 29.3917C3.20872 29.5977 3.32009 29.7875 3.46514 29.9502C3.61019 30.113 3.78605 30.2453 3.98255 30.3397C4.17905 30.434 4.39231 30.4885 4.60999 30.5H12.61C12.2665 30.1425 12.0293 29.6964 11.925 29.2117C11.8207 28.727 11.8535 28.2228 12.0196 27.7556C12.1857 27.2885 12.4786 26.8768 12.8654 26.5667C13.2523 26.2566 13.7179 26.0604 14.21 26C13.9705 25.5938 13.8428 25.1315 13.84 24.66C13.84 23.9439 14.1245 23.2572 14.6308 22.7508C15.1371 22.2445 15.8239 21.96 16.54 21.96H22.54C23.2561 21.96 23.9428 22.2445 24.4492 22.7508C24.9555 23.2572 25.24 23.9439 25.24 24.66C25.2451 25.1299 25.1243 25.5926 24.89 26Z" fill="white"/>
<path d="M21.6 28.5C21.6 28.2348 21.4946 27.9804 21.3071 27.7929C21.1195 27.6054 20.8652 27.5 20.6 27.5H14.6C14.3348 27.5 14.0804 27.6054 13.8929 27.7929C13.7053 27.9804 13.6 28.2348 13.6 28.5C13.6 28.7652 13.7053 29.0196 13.8929 29.2071C14.0804 29.3946 14.3348 29.5 14.6 29.5H20.6C20.8652 29.5 21.1195 29.3946 21.3071 29.2071C21.4946 29.0196 21.6 28.7652 21.6 28.5Z" fill="white"/>
<path d="M22.54 23.5H16.54C16.2748 23.5 16.0204 23.6054 15.8329 23.7929C15.6453 23.9804 15.54 24.2348 15.54 24.5C15.54 24.7652 15.6453 25.0196 15.8329 25.2071C16.0204 25.3946 16.2748 25.5 16.54 25.5H22.54C22.8052 25.5 23.0595 25.3946 23.2471 25.2071C23.4346 25.0196 23.54 24.7652 23.54 24.5C23.54 24.2348 23.4346 23.9804 23.2471 23.7929C23.0595 23.6054 22.8052 23.5 22.54 23.5Z" fill="white"/>
<path d="M22 31.5H16C15.7348 31.5 15.4804 31.6054 15.2929 31.7929C15.1054 31.9804 15 32.2348 15 32.5C15 32.7652 15.1054 33.0196 15.2929 33.2071C15.4804 33.3946 15.7348 33.5 16 33.5H22C22.2652 33.5 22.5196 33.3946 22.7071 33.2071C22.8946 33.0196 23 32.7652 23 32.5C23 32.2348 22.8946 31.9804 22.7071 31.7929C22.5196 31.6054 22.2652 31.5 22 31.5Z" fill="white"/>
<path d="M32.7 31.5H25.7C25.4348 31.5 25.1804 31.6054 24.9929 31.7929C24.8054 31.9804 24.7 32.2348 24.7 32.5C24.7 32.7652 24.8054 33.0196 24.9929 33.2071C25.1804 33.3946 25.4348 33.5 25.7 33.5H32.7C32.9652 33.5 33.2196 33.3946 33.4071 33.2071C33.5947 33.0196 33.7 32.7652 33.7 32.5C33.7 32.2348 33.5947 31.9804 33.4071 31.7929C33.2196 31.6054 32.9652 31.5 32.7 31.5Z" fill="white"/>
<path d="M33.7 27.5H26.7C26.4348 27.5 26.1804 27.6054 25.9929 27.7929C25.8054 27.9804 25.7 28.2348 25.7 28.5C25.7 28.7652 25.8054 29.0196 25.9929 29.2071C26.1804 29.3946 26.4348 29.5 26.7 29.5H33.7C33.9652 29.5 34.2196 29.3946 34.4071 29.2071C34.5947 29.0196 34.7 28.7652 34.7 28.5C34.7 28.2348 34.5947 27.9804 34.4071 27.7929C34.2196 27.6054 33.9652 27.5 33.7 27.5Z" fill="white"/>
</svg>
