<svg width="108" height="90" viewBox="0 0 108 90" fill="none" xmlns="http://www.w3.org/2000/svg">
<ellipse cx="26" cy="54.7602" rx="26" ry="25.5" fill="#6F5EED"/>
<rect x="37" y="47.8825" width="54.557" height="42.7127" transform="rotate(-61.3613 37 47.8825)" fill="#161718"/>
<path d="M45.0025 45.8113L49.2002 21.3579L27.0077 54.2565L66.739 58.0715L44.9971 45.8001L45.0025 45.8113ZM98.7277 20.8908L53.506 19.6772L49.2824 44.1336L71.0287 56.3915L98.7277 20.8908Z" fill="#E0E0E0"/>
<path d="M45.1773 58.3406C44.5424 60.3423 43.4832 62.1763 41.9995 63.8426C40.5042 65.4819 38.5454 66.8266 36.1232 67.8767C33.9164 68.8334 31.7135 69.3568 29.5145 69.4469C27.3425 69.5252 25.2843 69.2026 23.3401 68.4789C21.3841 67.7282 19.6134 66.5936 18.0279 65.075C16.4423 63.5563 15.1654 61.6801 14.197 59.4463C13.2053 57.1587 12.6971 54.9172 12.6726 52.7218C12.6749 50.5148 13.0958 48.462 13.9353 46.5635C14.7631 44.638 15.9672 42.9171 17.5478 41.4006C19.1284 39.8842 21.0086 38.6534 23.1886 37.7084C25.2071 36.8333 27.3427 36.3391 29.5955 36.2257C31.8635 36.0737 33.9006 36.4215 35.7067 37.269L33.0539 43.9821C32.023 43.3739 30.8894 43.0821 29.6531 43.1065C28.4168 43.1309 27.2469 43.3823 26.1435 43.8607C24.9324 44.3857 23.9147 45.0986 23.0903 45.9995C22.2812 46.8618 21.6825 47.8407 21.2942 48.9362C20.9059 50.0317 20.7432 51.2053 20.8062 52.4568C20.8576 53.6814 21.1574 54.9262 21.7058 56.1911C22.2658 57.4829 22.981 58.5796 23.8514 59.4811C24.7218 60.3826 25.676 61.072 26.7141 61.5491C27.7675 61.9876 28.8854 62.2064 30.0678 62.2053C31.2503 62.2042 32.4336 61.947 33.6178 61.4336C34.9904 60.8386 36.0713 60.0503 36.8607 59.0686C37.65 58.087 38.1675 57.0314 38.4132 55.9019L45.1773 58.3406Z" fill="white"/>
</svg>
