<svg width="30" height="30" viewBox="0 0 37 37" fill="none" xmlns="http://www.w3.org/2000/svg">
<path d="M32.8664 30.8755L23.4827 21.4918C24.9389 19.6093 25.7266 17.3076 25.7266 14.8867C25.7266 11.9889 24.5956 9.27168 22.5505 7.22295C20.5054 5.17422 17.781 4.04688 14.8867 4.04688C11.9925 4.04688 9.26807 5.17783 7.22295 7.22295C5.17422 9.26807 4.04688 11.9889 4.04688 14.8867C4.04688 17.781 5.17783 20.5054 7.22295 22.5505C9.26807 24.5992 11.9889 25.7266 14.8867 25.7266C17.3076 25.7266 19.6057 24.9389 21.4882 23.4863L30.8719 32.8664C30.8994 32.8939 30.9321 32.9158 30.968 32.9307C31.004 32.9456 31.0425 32.9533 31.0814 32.9533C31.1204 32.9533 31.1589 32.9456 31.1949 32.9307C31.2308 32.9158 31.2635 32.8939 31.291 32.8664L32.8664 31.2946C32.8939 31.2671 32.9158 31.2344 32.9307 31.1985C32.9456 31.1625 32.9533 31.124 32.9533 31.0851C32.9533 31.0461 32.9456 31.0076 32.9307 30.9716C32.9158 30.9357 32.8939 30.903 32.8664 30.8755ZM20.6102 20.6102C19.0781 22.1386 17.0475 22.9805 14.8867 22.9805C12.726 22.9805 10.6953 22.1386 9.16328 20.6102C7.63486 19.0781 6.79297 17.0475 6.79297 14.8867C6.79297 12.726 7.63486 10.6917 9.16328 9.16328C10.6953 7.63486 12.726 6.79297 14.8867 6.79297C17.0475 6.79297 19.0817 7.63125 20.6102 9.16328C22.1386 10.6953 22.9805 12.726 22.9805 14.8867C22.9805 17.0475 22.1386 19.0817 20.6102 20.6102Z" fill="white"/>
</svg>
