<svg width="20" height="20" viewBox="0 0 25 25" fill="none" xmlns="http://www.w3.org/2000/svg">
<path d="M12.75 4.10001C17.1625 4.10001 20.7875 7.36251 21.4 11.6H24L19.625 16.6L15.25 11.6H18.15C17.8704 10.3764 17.1841 9.28374 16.2033 8.50047C15.2225 7.71721 14.0052 7.28961 12.75 7.28751C10.9375 7.28751 9.3375 8.17501 8.325 9.51251L6.1875 7.07501C7.00564 6.13946 8.0146 5.38991 9.14654 4.87676C10.2785 4.36361 11.5072 4.09876 12.75 4.10001ZM12.25 20.9C7.85 20.9 4.2125 17.6375 3.6 13.4H1L5.375 8.40001C6.8375 10.0625 8.2875 11.7375 9.75 13.4H6.85C7.12965 14.6236 7.81589 15.7163 8.79668 16.4995C9.77746 17.2828 10.9948 17.7104 12.25 17.7125C14.0625 17.7125 15.6625 16.825 16.675 15.4875L18.8125 17.925C17.9951 18.8615 16.9863 19.6117 15.8542 20.1249C14.7221 20.6382 13.493 20.9025 12.25 20.9Z" fill="white"/>
</svg>
