<svg width="20" height="20" viewBox="0 0 25 22" fill="none" xmlns="http://www.w3.org/2000/svg">
<path d="M22.5195 4.71429H3.90625C3.47461 4.71429 3.125 4.36268 3.125 3.92857C3.125 3.49446 3.47461 3.14286 3.90625 3.14286H22.6562C23.0879 3.14286 23.4375 2.79125 23.4375 2.35714C23.4375 1.05531 22.3882 0 21.0938 0H3.125C1.39893 0 0 1.40692 0 3.14286V18.8571C0 20.5931 1.39893 22 3.125 22H22.5195C23.8877 22 25 20.9427 25 19.6429V7.07143C25 5.77156 23.8877 4.71429 22.5195 4.71429ZM20.3125 14.9286C19.4497 14.9286 18.75 14.2249 18.75 13.3571C18.75 12.4894 19.4497 11.7857 20.3125 11.7857C21.1753 11.7857 21.875 12.4894 21.875 13.3571C21.875 14.2249 21.1753 14.9286 20.3125 14.9286Z" fill="white"/>
</svg>
