<svg width="108" height="88" viewBox="0 0 108 88" fill="none" xmlns="http://www.w3.org/2000/svg">
<ellipse cx="26" cy="52.7602" rx="26" ry="25.5" fill="#6F5EED"/>
<path d="M45.0024 43.8113L49.2001 19.3579L27.0075 52.2564L66.7389 56.0715L44.997 43.8001L45.0024 43.8113ZM98.7276 18.8907L53.5059 17.6772L49.2822 42.1336L71.0286 54.3914L98.7276 18.8907Z" fill="#E0E0E0"/>
<path d="M45.1772 56.3406C44.5423 58.3423 43.483 60.1763 41.9994 61.8425C40.5041 63.4819 38.5453 64.8266 36.1231 65.8767C33.9162 66.8334 31.7133 67.3568 29.5144 67.4468C27.3424 67.5252 25.2842 67.2026 23.34 66.4788C21.384 65.7282 19.6133 64.5936 18.0278 63.0749C16.4422 61.5563 15.1653 59.68 14.1969 57.4463C13.2052 55.1586 12.697 52.9171 12.6724 50.7218C12.6748 48.5148 13.0957 46.462 13.9351 44.5634C14.7629 42.638 15.9671 40.9171 17.5477 39.4006C19.1283 37.8841 21.0085 36.6534 23.1885 35.7083C25.207 34.8333 27.3426 34.3391 29.5954 34.2257C31.8634 34.0737 33.9004 34.4215 35.7066 35.269L33.0538 41.982C32.0229 41.3739 30.8892 41.0821 29.653 41.1065C28.4167 41.1309 27.2468 41.3823 26.1434 41.8606C24.9323 42.3857 23.9145 43.0986 23.0902 43.9995C22.2811 44.8618 21.6824 45.8407 21.2941 46.9362C20.9058 48.0317 20.7431 49.2052 20.8061 50.4568C20.8574 51.6814 21.1573 52.9262 21.7056 54.1911C22.2657 55.4829 22.9809 56.5796 23.8513 57.4811C24.7217 58.3826 25.6759 59.0719 26.714 59.5491C27.7674 59.9876 28.8853 60.2063 30.0677 60.2053C31.2502 60.2042 32.4335 59.947 33.6177 59.4336C34.9903 58.8386 36.0712 58.0502 36.8606 57.0686C37.6499 56.087 38.1674 55.0314 38.4131 53.9018L45.1772 56.3406Z" fill="white"/>
</svg>
